<svg width="24" height="24" xmlns="http://www.w3.org/2000/svg"><path d="M12 4a43.5 43.5 0 014.635.23 3 3 0 012.49 1.936l.832 2.233L21.4 8.4a.6.6 0 010 1.2l-.996-.001.191.51c.145.042.263.095.382.158.326.174.582.43.756.756.174.326.267.65.267 1.54v4.155c0 .446-.046.607-.134.77a.909.909 0 01-.378.378c-.122.066-.245.109-.488.126v1.294c0 .201-.028.31-.08.407a.545.545 0 01-.227.227c-.098.052-.206.08-.407.08h-.172c-.201 0-.31-.028-.407-.08a.545.545 0 01-.227-.227c-.052-.098-.08-.206-.08-.407l-.001-1.287H4.6v1.287c0 .201-.028.31-.08.407a.545.545 0 01-.227.227c-.098.052-.206.08-.407.08h-.172c-.201 0-.31-.028-.407-.08a.545.545 0 01-.227-.227c-.052-.098-.08-.206-.08-.407v-1.294c-.243-.017-.366-.06-.488-.126a.909.909 0 01-.378-.378c-.088-.163-.134-.324-.134-.77v-4.154c0-.892.093-1.215.267-1.54a1.81 1.81 0 01.756-.757c.119-.063.237-.116.382-.157l.191-.511L2.6 9.6a.6.6 0 110-1.2l1.443-.001.832-2.233a3 3 0 012.49-1.936A43.46 43.46 0 0112 4zm7.597 7.2H4.403c-.502.006-.657.041-.814.125a.618.618 0 00-.264.264c-.084.157-.119.312-.124.814L3.199 16.8H20.8v-4.236c0-.574-.027-.767-.102-.928l-.023-.047a.618.618 0 00-.264-.264c-.157-.084-.312-.119-.814-.124zM6.9 13.4a.6.6 0 010 1.2H5.1a.6.6 0 010-1.2h1.8zm12 0a.6.6 0 010 1.2h-1.8a.6.6 0 010-1.2h1.8zM12 5.2a42.27 42.27 0 00-4.507.223A1.8 1.8 0 006.06 6.44L6 6.584 4.726 10h14.545L18 6.584a1.8 1.8 0 00-1.34-1.138l-.154-.023A42.27 42.27 0 0012 5.2z" fill="#2866A8" fill-rule="evenodd"/></svg>